<?xml version="1.0" encoding="UTF-8" standalone="no"?>
<svg
   xmlns:dc="http://purl.org/dc/elements/1.1/"
   xmlns:cc="http://creativecommons.org/ns#"
   xmlns:rdf="http://www.w3.org/1999/02/22-rdf-syntax-ns#"
   xmlns:svg="http://www.w3.org/2000/svg"
   xmlns="http://www.w3.org/2000/svg"
   xmlns:sodipodi="http://sodipodi.sourceforge.net/DTD/sodipodi-0.dtd"
   xmlns:inkscape="http://www.inkscape.org/namespaces/inkscape"
   version="1.0"
   width="73.752953mm"
   height="71.027298mm"
   id="svg2"
   inkscape:version="0.91 r13725"
   viewBox="0 0 73.752952 71.027298"
   sodipodi:docname="logga_f4.svg"
   inkscape:export-filename="/Users/thuma/repos/atportalen/bilder/ikon.png"
   inkscape:export-xdpi="640.19275"
   inkscape:export-ydpi="640.19275">
  <metadata
     id="metadata133">
    <rdf:RDF>
      <cc:Work
         rdf:about="">
        <dc:format>image/svg+xml</dc:format>
        <dc:type
           rdf:resource="http://purl.org/dc/dcmitype/StillImage" />
        <dc:title></dc:title>
      </cc:Work>
    </rdf:RDF>
  </metadata>
  <sodipodi:namedview
     pagecolor="#ffffff"
     bordercolor="#666666"
     borderopacity="1"
     objecttolerance="10"
     gridtolerance="10"
     guidetolerance="10"
     inkscape:pageopacity="0"
     inkscape:pageshadow="2"
     inkscape:window-width="1223"
     inkscape:window-height="733"
     id="namedview131"
     inkscape:document-units="mm"
     showgrid="false"
     inkscape:zoom="1.894311"
     inkscape:cx="166.00796"
     inkscape:cy="109.49249"
     inkscape:window-x="19"
     inkscape:window-y="20"
     inkscape:window-maximized="0"
     inkscape:current-layer="svg2"
     fit-margin-top="0"
     fit-margin-left="0"
     fit-margin-right="0"
     fit-margin-bottom="0" />
  <defs
     id="defs4">
    <pattern
       id="WMFhbasepattern"
       patternUnits="userSpaceOnUse"
       width="6"
       height="6"
       x="0"
       y="0" />
  </defs>
  <ellipse
     style="opacity:1;fill:#48b3dd;fill-opacity:0.40229887;fill-rule:nonzero;stroke:none;stroke-width:0.69999999;stroke-miterlimit:4;stroke-dasharray:none;stroke-opacity:1"
     id="path5173"
     cx="36.876476"
     cy="35.513649"
     rx="36.876476"
     ry="35.513649" />
  <path
     style="fill:#48b3dd;fill-opacity:1;fill-rule:evenodd;stroke:none;stroke-width:0.28222221px;stroke-linecap:butt;stroke-linejoin:miter;stroke-opacity:1"
     d="M 65.897582,17.632168 7.1673654,17.245791 36.62653,67.719306 Z"
     id="path5152"
     inkscape:connector-curvature="0"
     sodipodi:nodetypes="cccc" />
  <path
     style="fill:#005faa;fill-opacity:1;fill-rule:nonzero;stroke:none"
     d="m 19.738631,35.905597 0,0 0,-1.5875 0.264584,-1.5875 0.264583,-1.5875 0.440972,-1.411111 0.529167,-1.499305 0.705555,-1.322917 0.705556,-1.322917 0.881944,-1.234722 0.970139,-1.234722 0.970139,-1.058334 1.146528,-1.058333 1.234722,-0.881944 1.234722,-0.881945 1.322917,-0.705555 1.411111,-0.617362 1.411111,-0.529166 -25.8409721,0 12.5236111,21.519444 0,0 -0.176389,-1.499305 0,-1.499306 0,0 0,0 z"
     id="path7"
     inkscape:connector-curvature="0" />
  <path
     style="fill:#009453;fill-opacity:1;fill-rule:nonzero;stroke:none"
     d="m 36.671965,53.808928 0,0 -1.411112,-0.08805 -1.322916,-0.176389 -1.322917,-0.264442 -1.234722,-0.352778 -1.234722,-0.441113 -1.234723,-0.61722 -1.146527,-0.617502 -1.058334,-0.705556 9.965973,17.021387 9.965831,-17.021387 0,0 -1.058334,0.705556 -1.146386,0.617502 -1.146387,0.61722 -1.235004,0.441113 -1.322776,0.352778 -1.322776,0.264442 -1.323057,0.176389 -1.411111,0.08805 0,0 0,0 z"
     id="path9"
     inkscape:connector-curvature="0" />
  <path
     style="fill:#009453;fill-opacity:1;fill-rule:nonzero;stroke:none"
     d="m 65.95252,17.384764 0,0 -23.018609,0 0,0 -1.235004,0 -1.146387,0.08819 -1.058333,0.176389 -1.058334,0.176389 -0.97028,0.264583 -0.881662,0.264584 -0.882226,0.352777 -0.881804,0.352778 -0.79375,0.440972 -0.705555,0.352778 -1.322917,0.970139 -1.146528,1.146528 -0.970139,1.146528 -0.881944,1.146527 -0.617361,1.234723 -0.617361,1.234722 -0.440973,1.234722 -0.264583,1.234723 -0.264583,1.146527 -0.0882,1.058334 0,0.970139 0,0 0.0882,1.5875 0.176389,1.499305 0.440972,1.499306 0.529167,1.411111 0,0 0.352777,0.79375 0,0 0.617361,0.970139 0.79375,0.970139 0.881945,0.79375 0.970139,0.705555 1.058333,0.617361 1.146528,0.440972 1.234722,0.264584 1.322917,0.176389 0,0 0,0 0,0 0,0 0,0 0,0 0,0 0.352778,0 0,0 0.352777,0 0,0 0.705556,-0.08819 0.705555,-0.176389 0.617503,-0.176389 0.61722,-0.264583 0.61722,-0.264583 0.529449,-0.352778 0.528884,-0.440972 0.441113,-0.440972 0.441114,-0.529167 0.352777,-0.529167 0.352778,-0.529166 0.264442,-0.617362 0.264443,-0.617361 0.176671,-0.705555 0.08805,-0.705556 0,-0.617361 0,0 0,-0.79375 -0.08805,-0.705555 -0.176671,-0.617362 -0.264443,-0.705555 -0.264442,-0.617361 -0.352778,-0.529167 -0.441113,-0.529167 -0.441113,-0.529166 -0.528885,-0.440972 -0.529449,-0.440973 -0.61722,-0.352777 -0.61722,-0.264584 -0.617502,-0.264588 -0.705555,-0.176389 -0.705556,-0.08819 -0.705555,-0.08819 0,0 0.440831,-0.352778 0,0 0.617502,-0.529166 0.793609,-0.440973 0.705555,-0.352777 0.793891,-0.352778 0.881945,-0.264583 0.881944,-0.264584 0.881945,-0.08819 0.881944,-0.08819 0,0 1.058334,0.08819 0.969997,0.176389 0.97028,0.264583 0.881945,0.264583 0.881944,0.440973 0.881945,0.529166 0.705555,0.529167 0.705556,0.705555 0.705555,0.705556 0.529167,0.79375 0.529167,0.79375 0.441113,0.881944 0.352778,0.881945 0.176106,0.970139 0.176672,0.970139 0.08805,1.058333 0,0 -0.08805,0.79375 -0.08834,0.881935 12.523611,-21.519444 0,0 0,0 z"
     id="path11"
     inkscape:connector-curvature="0" />
  <path
     style="opacity:1;fill:#ffcc00;fill-opacity:1;fill-rule:nonzero;stroke:none;stroke-width:0.69999999;stroke-miterlimit:4;stroke-dasharray:none;stroke-opacity:1"
     d="m 37.914287,40.740308 c 0,-0.701328 -0.328338,-1.372613 0.370207,-2.145817 1.845999,-2.043301 2.495878,-5.191207 0.654351,-7.105202 -0.31633,-0.328729 -2.563133,-1.173463 -3.700235,-1.877187 -2.373302,-1.468777 -3.573096,-2.786012 -4.190833,-4.117751 -0.595971,-1.284817 -0.542587,-3.609657 0.22146,-4.664395 1.686565,-2.328234 6.428604,-2.96462 8.697829,-0.914513 0.397211,0.358854 1.239786,1.786271 1.344445,2.163066 0.246578,0.887744 -0.04017,0.984858 -0.634328,1.103687 -0.311573,0.06231 -0.630967,0.312858 -0.7001,0.53068 -0.0763,0.240411 -0.741416,0.484461 -1.035689,0.484461 -0.552405,0 -1.026472,-0.245565 -2.390221,-1.2495 -1.535176,-1.130133 -2.132036,-1.430373 -2.819123,-0.101696 -0.815442,1.576891 0.03934,2.504447 3.964322,4.943089 4.234448,2.630921 5.443487,5.61365 4.541367,8.704141 -0.156769,0.537058 -0.730374,1.869354 -0.987411,2.314305 -0.507314,0.8782 -1.459039,2.504588 -2.429797,2.441507 l -1.258802,0.469944 0.352555,-0.978819 z"
     id="path5009"
     inkscape:connector-curvature="0"
     sodipodi:nodetypes="cscssssssssssssssccc" />
  <path
     style="opacity:1;fill:#ffcc00;fill-opacity:1;fill-rule:nonzero;stroke:none;stroke-width:0.69999999;stroke-miterlimit:4;stroke-dasharray:none;stroke-opacity:1"
     d="m 38.4822,59.953836 c 1.328917,-1.438835 2.044756,-3.003892 1.396274,-4.343473 -0.464873,-0.960301 -1.493365,-1.205701 -4.18029,-2.570818 -2.566992,-1.304183 -4.203123,-2.692717 -4.579004,-3.985693 -0.455888,-1.568204 0.110819,-3.825356 1.501544,-5.437988 0.363011,-0.420935 1.909309,-1.424647 1.823604,-0.193485 0.348119,0.215149 0.156464,1.791684 -0.374658,2.801365 -0.595511,1.132081 -0.43134,1.493425 -0.05242,2.363716 0.377353,0.866699 1.150052,1.582668 3.473912,3.160239 2.522493,1.712417 3.192763,2.561255 3.761367,3.769285 0.764238,1.623655 0.177814,3.241384 -1.318116,4.840655 -0.942058,1.007136 -3.390426,1.694729 -1.45221,-0.403803 z"
     id="path5011"
     inkscape:connector-curvature="0"
     sodipodi:nodetypes="ssssscssssss" />
  <path
     style="opacity:1;fill:#554400;fill-opacity:1;fill-rule:nonzero;stroke:none;stroke-width:0.69999999;stroke-miterlimit:4;stroke-dasharray:none;stroke-opacity:1"
     d="m 35.649938,59.718793 c -0.11001,-3.397933 -0.320773,-6.365557 -0.252918,-6.451082 0.06786,-0.08553 1.722845,0.738861 2.025969,1.041982 0.481948,0.481945 0.03248,8.165288 -0.30595,11.67826 -0.212852,2.209498 -1.895354,1.462321 -1.943473,2.43316 -0.04812,0.970839 0.586377,-3.541612 0.476369,-6.939545 z"
     id="path5032"
     inkscape:connector-curvature="0"
     sodipodi:nodetypes="csssscc" />
  <path
     style="opacity:1;fill:#554400;fill-opacity:1;fill-rule:nonzero;stroke:none;stroke-width:0.69999999;stroke-miterlimit:4;stroke-dasharray:none;stroke-opacity:1"
     d="m 35.528585,50.086133 c -0.55773,-0.410935 -0.516827,-1.689424 -0.954853,-8.084091 -0.07557,-1.103226 -0.290474,-2.353468 -0.477568,-2.7065 -0.187093,-0.353029 -0.797145,-1.648726 -0.99658,-2.376608 -0.350969,-1.280919 0.604029,-1.55181 1.402526,-1.351398 1.192169,0.299215 1.263663,-0.424252 0.976844,-2.746017 l -0.382294,-3.094618 2.422488,1.377705 c 0.987266,0.561473 0.59964,0.754332 0.138049,10.285064 -0.233172,4.814429 -0.593994,4.731955 -0.02446,4.731955 0.452413,0 1.416838,-0.192389 1.221913,0.261356 -0.145974,0.339793 -1.074454,3.459706 -1.191963,4.173943 -0.184771,1.123061 -1.637824,-0.105138 -2.134098,-0.470791 z"
     id="path5034"
     inkscape:connector-curvature="0"
     sodipodi:nodetypes="sssssscssssss" />
  <path
     style="opacity:1;fill:#806600;fill-opacity:1;fill-rule:nonzero;stroke:none;stroke-width:0.69999999;stroke-miterlimit:4;stroke-dasharray:none;stroke-opacity:1"
     d="m 36.238197,18.598088 c -1.400632,-0.10134 -2.146737,-0.588936 -2.146737,-1.558669 0,-1.199469 0.633032,-1.862343 1.99489,-1.158098 0.560561,0.289879 1.796395,0.431746 2.099944,0.315262 0.334346,-0.128301 0.432262,0.975961 0.428988,1.266178 -0.01025,0.908891 -0.881609,1.243528 -2.377085,1.135327 z"
     id="path5036"
     inkscape:connector-curvature="0"
     sodipodi:nodetypes="ssssss" />
  <path
     style="opacity:1;fill:#554400;fill-opacity:1;fill-rule:nonzero;stroke:none;stroke-width:0.69999999;stroke-miterlimit:4;stroke-dasharray:none;stroke-opacity:1"
     d="m 35.825878,26.269294 c -0.344582,-0.380757 -1.139534,-1.61759 -0.789802,-2.007885 l 0.173477,-1.685598 c 0.54878,0.527484 1.70098,0.08772 2.645247,1.406174 0.506858,0.707713 0.351559,2.343939 0.224316,2.830516 -0.234188,0.895533 -1.4738,0.318065 -2.253238,-0.543207 z"
     id="path5038"
     inkscape:connector-curvature="0"
     sodipodi:nodetypes="sscsss" />
  <path
     d="m 34.544164,31.023381 c -0.05344,-0.362444 -0.03177,-0.973749 -0.20797,-1.264725 0,0 -2.013253,-1.798181 -2.013253,-1.798181 -1.257923,-1.163905 -2.557729,-3.051422 -2.447967,-4.721982 0.08954,-1.362993 0.722114,-2.722158 1.877496,-3.644858 0.453488,-0.363721 1.685414,-0.957158 1.86161,-1.231544 0.153088,-0.246309 -0.0028,-1.958984 0,-2.398001 0.0072,-0.261624 -0.0014,-0.615133 0.171863,-0.83847 0.379832,-0.487512 1.630534,-0.320329 2.14179,-0.09444 0,0 1.155383,0.635553 1.155383,0.635553 0.509812,0.140384 1.21315,-0.270556 1.855832,0.06381 1.067284,0.556428 -0.04044,2.534555 0.194972,3.018239 0.131424,0.266728 0.843428,0.695535 1.126496,0.927805 0.889645,0.733822 1.536659,1.562083 1.582875,2.668557 0.039,0.964816 -0.135758,1.470196 -1.294029,1.531454 -0.223855,0.901005 -0.810212,0.87548 -1.733074,0.893348 0,0 -0.128535,2.658347 -0.128535,2.658347 0,0 2.108572,1.716504 2.108572,1.716504 1.494775,1.32726 2.472518,3.050144 2.497069,4.941489 0.02744,2.160624 -0.924305,4.346774 -2.495625,5.998193 0,0 -2.700706,2.552421 -2.700706,2.552421 0,0 -0.291734,2.552422 -0.291734,2.552422 0.261406,0.02424 0.46793,0.03318 0.716338,0.128898 1.546767,0.592161 0.128537,2.297179 -0.17042,3.18925 -0.15742,0.469646 -0.249851,1.166458 -0.257072,1.659074 -0.0044,0.334369 -0.03755,0.833365 0.147311,1.126894 0,0 2.150455,1.808391 2.150455,1.808391 1.078838,1.027349 1.822617,2.412038 1.884718,3.828635 0.07365,1.652693 -1.142385,3.121611 -2.44941,4.200009 -1.454338,1.202192 -2.163455,1.046494 -2.166342,2.56391 -0.0044,1.826258 0.307621,2.935283 -1.100502,4.466738 -0.267182,0.290974 -1.052842,1.175389 -1.556878,0.883138 -0.336505,-0.195261 -0.21519,-0.96354 -0.170419,-1.266004 0.181974,-1.214951 0.228188,-2.474573 0.228188,-3.70101 -2.144678,0.657251 -3.724662,1.274935 -6.065757,1.276212 0.08954,-0.954606 0.807323,-0.917595 1.733074,-1.190706 1.035511,-0.306292 3.113756,-1.026072 3.877752,-1.665456 0.738,-0.616407 0.420271,-1.711399 0.322062,-2.503926 0,0 0,-1.659074 0,-1.659074 0,0 -0.142977,-1.276212 -0.142977,-1.276212 0,0 -0.132869,-2.424799 -0.132869,-2.424799 -0.04332,-0.394351 0.039,-1.057979 -0.171864,-1.377034 -0.200748,-0.302461 -1.582875,-1.042663 -2.019031,-1.361714 -1.164047,-0.855061 -1.847167,-1.927081 -1.997367,-3.259444 -0.210857,-1.858163 0.543029,-3.589982 1.712854,-5.104844 0.436157,-0.565361 1.694079,-1.77521 1.828393,-2.297181 0.189192,-0.741478 -0.385609,-1.633549 -0.696117,-2.29718 0,0 -0.831877,-2.935285 -0.831877,-2.935285 -0.121314,-1.322155 1.299806,-1.867096 2.294879,-0.893347 0,-1.359165 -0.02601,-2.736196 -0.228187,-4.083876 z M 36.79427,16.519243 c -0.989297,-0.262901 -0.872314,-0.818052 -2.310765,-0.938016 0,0 0.144422,2.680043 0.144422,2.680043 2.111463,-0.08423 1.52655,-0.0077 3.466148,0.255243 0.147311,-0.8423 0.540141,-1.319603 0.288845,-2.169559 -0.53292,0.153144 -1.023957,0.321605 -1.58865,0.172289 z m 0.144423,2.59326 c -2.697818,-0.509208 -5.554501,1.033731 -6.019542,3.487885 -0.527143,2.792349 2.215445,5.240123 4.575313,6.707765 1.722965,1.072018 3.250957,1.669284 4.202704,3.501923 0.686008,1.320878 0.677343,3.142032 0,4.466739 -0.537254,1.04777 -1.412455,1.637379 -1.673861,2.169558 -0.257072,0.523248 -0.218078,1.343852 -0.218078,1.914317 0.979186,-0.409663 2.166342,-1.625893 2.780138,-2.424801 0.647015,-0.839746 1.008072,-1.459985 1.359019,-2.4248 0.220966,-0.612581 0.506924,-1.796905 0.456376,-2.424801 -0.381276,-4.719429 -4.947924,-5.654892 -8.048681,-8.317069 -1.012404,-0.869099 -1.629089,-2.025346 -0.719226,-3.157345 0.274404,-0.340749 0.667233,-0.630449 1.139496,-0.722336 1.48611,-0.2897 2.175007,1.513587 3.899415,1.956432 1.110612,0.285871 0.885312,-0.359892 1.240591,-0.659801 0.254184,-0.213127 0.603688,-0.192708 0.925751,-0.202918 0.365389,-2.057252 -1.842835,-3.48278 -3.899415,-3.870748 z m 2.10424,2.315047 c -0.583469,0.33692 -1.488999,-0.260347 -0.742333,-0.992892 1.1005,-0.348406 1.266587,0.69043 0.742333,0.992892 z m -3.401157,4.197458 c 0.291733,0.441569 1.486111,1.083503 2.019031,1.314497 0.101094,-0.495169 0.407272,-1.846678 0.202191,-2.270379 -0.135758,-0.282043 -0.515589,-0.491342 -0.779882,-0.680221 0,0 -1.733074,-1.260896 -1.733074,-1.260896 -0.09677,0.40073 0.08087,2.577946 0.291734,2.896999 z m -1.158271,-0.982683 c 0,0 -0.144423,-1.531453 -0.144423,-1.531453 -0.392829,0.598543 -0.320618,0.99034 0.144423,1.531453 z m 0.866537,5.61533 c 0,0 0.144422,0.127621 0.144422,0.127621 0,0 0,-0.127621 0,-0.127621 0,0 -0.144422,0 -0.144422,0 z m 2.260216,1.659074 c -0.161753,-0.687878 -1.409566,-1.332365 -2.115794,-1.531453 0,0 0.157422,3.062906 0.157422,3.062906 0,0 0.125648,1.27621 0.125648,1.27621 -0.01733,0.436465 -0.1502,1.311947 -0.732224,1.437015 -0.504036,0.107204 -0.863648,-0.409664 -1.172713,-0.523247 -0.437602,-0.159527 -0.480928,0.21568 -0.426048,0.492617 0,0 0.61813,2.294628 0.61813,2.294628 0,0 0.77844,1.659075 0.77844,1.659075 0.257071,0.897176 0.138645,0.968644 0.08666,1.786695 0,0 0.270071,2.169559 0.270071,2.169559 0,0 0,1.14859 0,1.14859 0,0 0.150199,1.531453 0.150199,1.531453 0.0014,0.576848 -0.103986,2.378858 0.147312,2.802559 0.261404,0.441569 1.242036,1.008207 1.730184,1.281316 0,-0.995445 -0.08376,-1.576121 0.248408,-2.552421 0.245518,-0.723612 0.805879,-1.402558 0.762551,-2.16956 -1.074504,0.719784 -1.292584,0.219509 -1.299803,-0.765726 0,0 0.144422,-2.424801 0.144422,-2.424801 0,0 -0.144422,-2.29718 -0.144422,-2.29718 0.0028,-1.338746 0.296066,-1.955155 0.514144,-3.190527 0,0 0.119871,-1.531454 0.119871,-1.531454 0,0 0.376944,-1.148591 0.376944,-1.148591 -1.227598,-0.98651 -0.125652,-1.896448 -0.339398,-2.807663 z m 1.17127,2.935284 c 0.04477,0.595991 -0.765442,1.669286 -0.254184,2.807665 0.908418,-1.89262 1.068728,-3.041211 0.144422,-4.977222 -0.93586,1.03373 0.05343,1.405108 0.109762,2.169557 z m -6.562572,10.20969 c -0.359613,0.598541 -0.654235,1.371926 -0.768329,2.041937 -0.08232,0.496447 -0.157422,0.768279 -0.08232,1.276211 0.43038,2.87275 2.956334,3.573389 5.425964,4.850879 1.748961,0.904832 3.40549,1.983232 3.315947,3.954976 -0.09098,1.981957 -1.891938,3.27731 -2.44941,4.33912 0.800102,-0.412219 1.630533,-1.028626 2.221222,-1.659078 0.491038,-0.523243 0.891089,-1.032453 1.195821,-1.659074 0.395718,-0.811668 0.350947,-1.204742 0.131425,-2.041935 -0.694674,-2.659625 -3.59035,-4.048142 -5.859233,-5.601291 -0.717781,-0.491341 -1.419676,-1.065636 -1.819727,-1.800734 -0.908419,-1.669284 0.483817,-2.987609 0.736555,-3.828632 0.145868,-0.483685 -0.07799,-1.541663 -0.216633,-2.041938 -0.69323,0.539838 -1.395124,1.445947 -1.831281,2.169559 z m 2.120126,3.318148 c 0,0 0,-1.403832 0,-1.403832 -0.200747,0.446674 -0.200747,0.957158 0,1.403832 z m 2.310765,14.038321 c 0,0 0.722113,-6.636295 0.722113,-6.636295 0.01733,-1.394899 -0.274403,-1.756069 -1.877496,-2.169563 0,0 0.144424,2.04194 0.144424,2.04194 0,0 0.150199,1.786697 0.150199,1.786697 0,0 0,1.403829 0,1.403829 0,0 0.138646,1.531456 0.138646,1.531456 0,0 0,5.232463 0,5.232463 0,0 -0.144422,1.914317 -0.144422,1.914317 1.603092,-1.248136 0.869424,-3.461083 0.866536,-5.104844 z m 1.546768,-5.742949 c -0.11265,0.815498 -0.680231,2.620061 -0.391386,3.318148 1.294028,-1.716504 2.170675,-3.002925 0.577691,-4.8496 -0.229633,0.513034 -0.109761,0.983956 -0.186305,1.531452 z m -0.680231,4.849603 c 0,0 0.144423,0.127618 0.144423,0.127618 0,0 0,-0.127618 0,-0.127618 0,0 -0.144423,0 -0.144423,0 z"
     id="Markering-3"
     inkscape:connector-curvature="0"
     style="fill:#000000;stroke:#000000;stroke-width:0.13576227" />
</svg>
