<?xml version="1.0" encoding="UTF-8" standalone="no"?>
<!DOCTYPE svg PUBLIC "-//W3C//DTD SVG 20010904//EN"
              "http://www.w3.org/TR/2001/REC-SVG-20010904/DTD/svg10.dtd">

<svg xmlns="http://www.w3.org/2000/svg"
     width="1.38889in" height="5.98611in"
     viewBox="0 0 100 431">
  <path id="Markering"
        fill="none" stroke="black" stroke-width="1"
        d="M 38.42,127.00
           C 38.05,124.16 38.20,119.37 36.98,117.09
             36.98,117.09 23.04,103.00 23.04,103.00
             14.33,93.88 5.33,79.09 6.09,66.00
             6.71,55.32 11.09,44.67 19.09,37.44
             22.23,34.59 30.76,29.94 31.98,27.79
             33.04,25.86 31.96,12.44 31.98,9.00
             32.03,6.95 31.97,4.18 33.17,2.43
             35.80,-1.39 44.46,-0.08 48.00,1.69
             48.00,1.69 56.00,6.67 56.00,6.67
             59.53,7.77 64.40,4.55 68.85,7.17
             76.24,11.53 68.57,27.03 70.20,30.82
             71.11,32.91 76.04,36.27 78.00,38.09
             84.16,43.84 88.64,50.33 88.96,59.00
             89.23,66.56 88.02,70.52 80.00,71.00
             78.45,78.06 74.39,77.86 68.00,78.00
             68.00,78.00 67.11,98.83 67.11,98.83
             67.11,98.83 81.71,112.28 81.71,112.28
             92.06,122.68 98.83,136.18 99.00,151.00
             99.19,167.93 92.60,185.06 81.72,198.00
             81.72,198.00 63.02,218.00 63.02,218.00
             63.02,218.00 61.00,238.00 61.00,238.00
             62.81,238.19 64.24,238.26 65.96,239.01
             76.67,243.65 66.85,257.01 64.78,264.00
             63.69,267.68 63.05,273.14 63.00,277.00
             62.97,279.62 62.74,283.53 64.02,285.83
             64.02,285.83 78.91,300.00 78.91,300.00
             86.38,308.05 91.53,318.90 91.96,330.00
             92.47,342.95 84.05,354.46 75.00,362.91
             64.93,372.33 60.02,371.11 60.00,383.00
             59.97,397.31 62.13,406.00 52.38,418.00
             50.53,420.28 45.09,427.21 41.60,424.92
             39.27,423.39 40.11,417.37 40.42,415.00
             41.68,405.48 42.00,395.61 42.00,386.00
             27.15,391.15 16.21,395.99 0.00,396.00
             0.62,388.52 5.59,388.81 12.00,386.67
             19.17,384.27 33.56,378.63 38.85,373.62
             43.96,368.79 41.76,360.21 41.08,354.00
             41.08,354.00 41.08,341.00 41.08,341.00
             41.08,341.00 40.09,331.00 40.09,331.00
             40.09,331.00 39.17,312.00 39.17,312.00
             38.87,308.91 39.44,303.71 37.98,301.21
             36.59,298.84 27.02,293.04 24.00,290.54
             15.94,283.84 11.21,275.44 10.17,265.00
             8.71,250.44 13.93,236.87 22.03,225.00
             25.05,220.57 33.76,211.09 34.69,207.00
             36.00,201.19 32.02,194.20 29.87,189.00
             29.87,189.00 24.11,166.00 24.11,166.00
             23.27,155.64 33.11,151.37 40.00,159.00
             40.00,148.35 39.82,137.56 38.42,127.00 Z
           M 54.00,13.35
           C 47.15,11.29 47.96,6.94 38.00,6.00
             38.00,6.00 39.00,27.00 39.00,27.00
             53.62,26.34 49.57,26.94 63.00,29.00
             64.02,22.40 66.74,18.66 65.00,12.00
             61.31,13.20 57.91,14.52 54.00,13.35 Z
           M 55.00,33.67
           C 36.32,29.68 16.54,41.77 13.32,61.00
             9.67,82.88 28.66,102.06 45.00,113.56
             56.93,121.96 67.51,126.64 74.10,141.00
             78.85,151.35 78.79,165.62 74.10,176.00
             70.38,184.21 64.32,188.83 62.51,193.00
             60.73,197.10 61.00,203.53 61.00,208.00
             67.78,204.79 76.00,195.26 80.25,189.00
             84.73,182.42 87.23,177.56 89.66,170.00
             91.19,165.20 93.17,155.92 92.82,151.00
             90.18,114.02 58.56,106.69 37.09,85.83
             30.08,79.02 25.81,69.96 32.11,61.09
             34.01,58.42 36.73,56.15 40.00,55.43
             50.29,53.16 55.06,67.29 67.00,70.76
             74.69,73.00 73.13,67.94 75.59,65.59
             77.35,63.92 79.77,64.08 82.00,64.00
             84.53,47.88 69.24,36.71 55.00,33.67 Z
           M 69.57,51.81
           C 65.53,54.45 59.26,49.77 64.43,44.03
             72.05,41.30 73.20,49.44 69.57,51.81 Z
           M 46.02,84.70
           C 48.04,88.16 56.31,93.19 60.00,95.00
             60.70,91.12 62.82,80.53 61.40,77.21
             60.46,75.00 57.83,73.36 56.00,71.88
             56.00,71.88 44.00,62.00 44.00,62.00
             43.33,65.14 44.56,82.20 46.02,84.70 Z
           M 38.00,77.00
           C 38.00,77.00 37.00,65.00 37.00,65.00
             34.28,69.69 34.78,72.76 38.00,77.00 Z
           M 44.00,121.00
           C 44.00,121.00 45.00,122.00 45.00,122.00
             45.00,122.00 45.00,121.00 45.00,121.00
             45.00,121.00 44.00,121.00 44.00,121.00 Z
           M 59.65,134.00
           C 58.53,128.61 49.89,123.56 45.00,122.00
             45.00,122.00 46.09,146.00 46.09,146.00
             46.09,146.00 46.96,156.00 46.96,156.00
             46.84,159.42 45.92,166.28 41.89,167.26
             38.40,168.10 35.91,164.05 33.77,163.16
             30.74,161.91 30.44,164.85 30.82,167.02
             30.82,167.02 35.10,185.00 35.10,185.00
             35.10,185.00 40.49,198.00 40.49,198.00
             42.27,205.03 41.45,205.59 41.09,212.00
             41.09,212.00 42.96,229.00 42.96,229.00
             42.96,229.00 42.96,238.00 42.96,238.00
             42.96,238.00 44.00,250.00 44.00,250.00
             44.01,254.52 43.28,268.64 45.02,271.96
             46.83,275.42 53.62,279.86 57.00,282.00
             57.00,274.20 56.42,269.65 58.72,262.00
             60.42,256.33 64.30,251.01 64.00,245.00
             56.56,250.64 55.05,246.72 55.00,239.00
             55.00,239.00 56.00,220.00 56.00,220.00
             56.00,220.00 55.00,202.00 55.00,202.00
             55.02,191.51 57.05,186.68 58.56,177.00
             58.56,177.00 59.39,165.00 59.39,165.00
             59.39,165.00 62.00,156.00 62.00,156.00
             53.50,148.27 61.13,141.14 59.65,134.00 Z
           M 67.76,157.00
           C 68.07,161.67 62.46,170.08 66.00,179.00
             72.29,164.17 73.40,155.17 67.00,140.00
             60.52,148.10 67.37,151.01 67.76,157.00 Z
           M 22.32,237.00
           C 19.83,241.69 17.79,247.75 17.00,253.00
             16.43,256.89 15.91,259.02 16.43,263.00
             19.41,285.51 36.90,291.00 54.00,301.01
             66.11,308.10 77.58,316.55 76.96,332.00
             76.33,347.53 63.86,357.68 60.00,366.00
             65.54,362.77 71.29,357.94 75.38,353.00
             78.78,348.90 81.55,344.91 83.66,340.00
             86.40,333.64 86.09,330.56 84.57,324.00
             79.76,303.16 59.71,292.28 44.00,280.11
             39.03,276.26 34.17,271.76 31.40,266.00
             25.11,252.92 34.75,242.59 36.50,236.00
             37.51,232.21 35.96,223.92 35.00,220.00
             30.20,224.23 25.34,231.33 22.32,237.00 Z
           M 37.00,263.00
           C 37.00,263.00 37.00,252.00 37.00,252.00
             35.61,255.50 35.61,259.50 37.00,263.00 Z
           M 53.00,373.00
           C 53.00,373.00 58.00,321.00 58.00,321.00
             58.12,310.07 56.10,307.24 45.00,304.00
             45.00,304.00 46.00,320.00 46.00,320.00
             46.00,320.00 47.04,334.00 47.04,334.00
             47.04,334.00 47.04,345.00 47.04,345.00
             47.04,345.00 48.00,357.00 48.00,357.00
             48.00,357.00 48.00,398.00 48.00,398.00
             48.00,398.00 47.00,413.00 47.00,413.00
             58.10,403.22 53.02,385.88 53.00,373.00 Z
           M 63.71,328.00
           C 62.93,334.39 59.00,348.53 61.00,354.00
             69.96,340.55 76.03,330.47 65.00,316.00
             63.41,320.02 64.24,323.71 63.71,328.00 Z
           M 59.00,366.00
           C 59.00,366.00 60.00,367.00 60.00,367.00
             60.00,367.00 60.00,366.00 60.00,366.00
             60.00,366.00 59.00,366.00 59.00,366.00 Z" />
</svg>
