<?xml version="1.0" encoding="UTF-8" standalone="no"?>
<!DOCTYPE svg PUBLIC "-//W3C//DTD SVG 20010904//EN"
              "http://www.w3.org/TR/2001/REC-SVG-20010904/DTD/svg10.dtd">

<svg xmlns="http://www.w3.org/2000/svg"
     width="7.11022in" height="7.11022in"
     viewBox="0 0 512 512">
  <path id="Markering"
        fill="none" stroke="black" stroke-width="1"
        d="M 512.00,0.00
           C 512.00,0.00 512.00,512.00 512.00,512.00
             512.00,512.00 0.00,512.00 0.00,512.00
             0.00,512.00 0.00,0.00 0.00,0.00
             0.00,0.00 512.00,0.00 512.00,0.00 Z
           M 176.00,265.96
           C 184.73,257.61 199.79,241.00 206.31,231.00
             225.17,202.03 231.02,162.04 202.00,137.30
             197.15,133.17 190.94,129.71 185.00,127.43
             175.87,123.92 172.53,123.89 163.00,124.00
             151.19,124.15 138.37,130.98 130.00,139.04
             130.00,139.04 118.79,151.80 118.79,151.80
             116.44,152.84 111.54,151.01 109.00,150.37
             105.29,149.45 95.62,148.05 92.00,148.32
             81.06,149.15 72.15,151.42 63.00,157.77
             45.93,169.64 36.81,194.12 43.36,214.00
             49.31,232.07 66.55,246.57 82.00,256.66
             98.18,267.22 116.76,275.67 135.00,282.00
             132.11,284.76 115.93,299.08 113.42,300.31
             113.42,300.31 104.00,302.52 104.00,302.52
             99.90,302.89 97.82,300.20 90.00,300.01
             83.64,299.86 78.70,300.60 73.00,303.64
             44.53,318.84 54.21,363.62 87.00,364.00
             92.54,364.06 95.74,364.07 101.00,361.91
             117.27,355.23 124.65,335.95 118.00,320.00
             123.41,316.95 120.68,315.30 123.60,311.28
             123.60,311.28 142.00,294.72 142.00,294.72
             144.48,292.56 147.78,289.05 151.00,288.32
             154.31,287.56 167.89,291.61 172.00,292.63
             172.00,292.63 193.00,297.85 193.00,297.85
             193.00,297.85 200.00,301.51 200.00,301.51
             203.48,302.90 207.02,302.52 209.89,304.59
             213.55,307.22 213.73,310.89 216.41,313.70
             216.41,313.70 231.00,324.30 231.00,324.30
             242.05,331.46 268.73,339.13 282.00,341.00
             282.50,347.13 286.69,350.87 293.00,349.19
             295.45,348.54 297.16,346.81 300.00,346.39
             302.21,346.06 310.24,347.77 313.00,348.25
             313.00,348.25 378.00,360.25 378.00,360.25
             387.47,361.90 403.80,364.89 413.00,365.00
             432.27,365.22 457.86,361.53 466.07,341.00
             469.01,333.65 467.45,329.05 468.30,325.00
             469.24,320.43 474.15,312.69 474.48,310.91
             475.20,307.06 473.00,304.74 471.37,301.72
             469.00,297.32 469.80,290.15 459.00,291.18
             454.74,291.58 448.41,293.24 447.32,298.04
             447.32,298.04 447.32,305.00 447.32,305.00
             446.79,307.66 444.85,309.80 445.49,312.98
             446.38,317.43 452.45,319.49 454.83,325.09
             458.57,333.90 447.95,344.63 441.00,348.49
             425.12,357.29 412.36,353.49 396.00,350.75
             396.00,350.75 336.00,340.25 336.00,340.25
             336.00,340.25 305.06,334.77 305.06,334.77
             299.44,332.83 302.04,328.40 294.00,326.19
             286.97,324.25 285.85,328.08 280.00,327.65
             271.16,327.00 248.39,319.82 241.00,314.90
             232.48,309.21 233.88,306.63 232.05,301.00
             229.26,292.43 229.91,294.70 230.91,286.00
             230.89,283.66 230.55,281.29 230.91,279.00
             232.95,271.89 239.73,264.84 246.00,261.35
             250.32,258.94 270.28,251.00 274.83,250.23
             279.86,249.43 281.04,253.41 287.98,250.23
             293.61,247.59 291.67,244.82 297.06,242.05
             297.06,242.05 363.00,217.31 363.00,217.31
             376.06,212.66 401.47,204.29 415.00,205.32
             426.03,206.17 434.31,209.81 441.91,218.00
             443.89,220.15 446.35,223.06 446.94,226.00
             447.16,227.10 446.37,236.66 445.95,237.72
             445.18,239.64 443.47,240.81 443.19,244.01
             442.73,249.18 445.92,250.31 448.05,253.37
             449.24,255.07 449.44,256.71 451.31,258.15
             453.18,259.58 455.72,259.86 458.00,259.96
             466.85,260.36 467.75,258.66 470.78,251.28
             471.60,249.29 472.44,248.27 472.76,245.96
             473.62,239.80 469.84,238.50 467.92,235.63
             467.92,235.63 464.57,228.28 464.57,228.28
             464.57,228.28 454.61,211.00 454.61,211.00
             443.73,197.12 428.21,191.91 411.00,193.09
             376.81,195.42 340.01,211.50 308.00,223.58
             308.00,223.58 290.00,230.10 290.00,230.10
             286.37,230.52 284.91,228.83 280.01,230.10
             275.16,231.53 274.71,233.80 269.99,235.89
             269.99,235.89 247.00,244.31 247.00,244.31
             237.63,248.57 228.18,255.29 222.55,264.00
             222.55,264.00 215.09,277.00 215.09,277.00
             214.13,278.89 213.43,281.79 211.57,282.83
             209.80,284.03 201.40,283.03 199.00,282.83
             199.00,282.83 165.00,276.00 165.00,276.00
             165.00,276.00 176.00,265.96 176.00,265.96 Z
           M 179.00,138.35
           C 184.91,140.20 190.19,142.30 194.91,146.47
             205.39,155.72 209.15,172.59 209.00,186.00
             208.77,205.40 197.49,225.84 184.83,240.00
             184.83,240.00 171.00,253.00 171.00,253.00
             171.00,253.00 157.00,265.00 157.00,265.00
             154.90,266.68 151.64,269.62 149.00,270.09
             146.84,270.48 142.22,268.95 140.00,268.28
             140.00,268.28 120.00,261.58 120.00,261.58
             120.00,261.58 104.00,254.75 104.00,254.75
             94.41,249.99 81.63,241.56 74.30,233.83
             61.21,220.04 52.33,199.27 61.82,181.00
             70.37,164.56 87.73,159.01 105.00,162.31
             110.87,163.43 119.62,168.41 124.98,166.40
             129.96,164.54 131.28,158.60 136.18,153.00
             144.79,143.18 152.18,138.52 165.00,136.43
             170.24,135.90 174.01,136.78 179.00,138.35 Z" />
</svg>
